<svg width="26" height="19" viewBox="0 0 26 19" fill="none" xmlns="http://www.w3.org/2000/svg">
<path d="M12.7805 9.55078C12.7805 12.3477 12.2219 14.5312 11.1047 16.1016C9.9875 17.6719 8.43672 18.457 6.45234 18.457C4.45234 18.457 2.89375 17.6797 1.77656 16.125C0.667188 14.5625 0.1125 12.3711 0.1125 9.55078C0.1125 6.76953 0.671094 4.59375 1.78828 3.02344C2.91328 1.45312 4.46797 0.667969 6.45234 0.667969C8.46016 0.667969 10.0148 1.44531 11.1164 3C12.2258 4.54688 12.7805 6.73047 12.7805 9.55078ZM3.66328 9.57422C3.66328 11.418 3.90156 12.832 4.37813 13.8164C4.85469 14.8008 5.53828 15.293 6.42891 15.293C7.34297 15.293 8.03438 14.8047 8.50313 13.8281C8.97188 12.8516 9.20625 11.418 9.20625 9.52734C9.20625 7.66016 8.97188 6.24219 8.50313 5.27344C8.03438 4.30469 7.35078 3.82031 6.45234 3.82031C5.54609 3.82031 4.85469 4.3125 4.37813 5.29688C3.90156 6.28125 3.66328 7.70703 3.66328 9.57422ZM22.2 18V3.89062H18.7664L20.2078 1.00781H25.657V18H22.2Z" fill="#8FC719"/>
</svg>
