<svg width="30" height="19" viewBox="0 0 30 19" fill="none" xmlns="http://www.w3.org/2000/svg">
<path d="M12.7805 9.55078C12.7805 12.3477 12.2219 14.5312 11.1047 16.1016C9.9875 17.6719 8.43672 18.457 6.45234 18.457C4.45234 18.457 2.89375 17.6797 1.77656 16.125C0.667188 14.5625 0.1125 12.3711 0.1125 9.55078C0.1125 6.76953 0.671094 4.59375 1.78828 3.02344C2.91328 1.45312 4.46797 0.667969 6.45234 0.667969C8.46016 0.667969 10.0148 1.44531 11.1164 3C12.2258 4.54688 12.7805 6.73047 12.7805 9.55078ZM3.66328 9.57422C3.66328 11.418 3.90156 12.832 4.37813 13.8164C4.85469 14.8008 5.53828 15.293 6.42891 15.293C7.34297 15.293 8.03438 14.8047 8.50313 13.8281C8.97188 12.8516 9.20625 11.418 9.20625 9.52734C9.20625 7.66016 8.97188 6.24219 8.50313 5.27344C8.03438 4.30469 7.35078 3.82031 6.45234 3.82031C5.54609 3.82031 4.85469 4.3125 4.37813 5.29688C3.90156 6.28125 3.66328 7.70703 3.66328 9.57422ZM29.0203 15.1641V18H17.1375L23.2313 10.0078C24.075 8.90625 24.6609 8.03906 24.9891 7.40625C25.325 6.77344 25.493 6.21484 25.493 5.73047C25.493 5.05859 25.2898 4.53125 24.8836 4.14844C24.4852 3.76562 23.9344 3.57422 23.2313 3.57422C22.575 3.57422 22.0516 3.81641 21.6609 4.30078C21.2703 4.77734 21.075 5.42188 21.075 6.23438V6.31641H17.618V6.02344C17.618 4.32031 18.1063 3.00391 19.0828 2.07422C20.0594 1.13672 21.4422 0.667969 23.2313 0.667969C25.0594 0.667969 26.4813 1.08594 27.4969 1.92188C28.5125 2.75781 29.0203 3.92578 29.0203 5.42578C29.0203 7.11328 27.7 9.60547 25.0594 12.9023L24.8133 13.1953L23.2313 15.1641H29.0203Z" fill="#8FC719"/>
</svg>
