<svg width="30" height="19" viewBox="0 0 30 19" fill="none" xmlns="http://www.w3.org/2000/svg">
<path d="M12.7805 9.55078C12.7805 12.3477 12.2219 14.5312 11.1047 16.1016C9.9875 17.6719 8.43672 18.457 6.45234 18.457C4.45234 18.457 2.89375 17.6797 1.77656 16.125C0.667188 14.5625 0.1125 12.3711 0.1125 9.55078C0.1125 6.76953 0.671094 4.59375 1.78828 3.02344C2.91328 1.45312 4.46797 0.667969 6.45234 0.667969C8.46016 0.667969 10.0148 1.44531 11.1164 3C12.2258 4.54688 12.7805 6.73047 12.7805 9.55078ZM3.66328 9.57422C3.66328 11.418 3.90156 12.832 4.37813 13.8164C4.85469 14.8008 5.53828 15.293 6.42891 15.293C7.34297 15.293 8.03438 14.8047 8.50313 13.8281C8.97188 12.8516 9.20625 11.418 9.20625 9.52734C9.20625 7.66016 8.97188 6.24219 8.50313 5.27344C8.03438 4.30469 7.35078 3.82031 6.45234 3.82031C5.54609 3.82031 4.85469 4.3125 4.37813 5.29688C3.90156 6.28125 3.66328 7.70703 3.66328 9.57422ZM17.4422 13.4648H20.8289V13.5117C20.8289 14.1289 21.0594 14.6328 21.5203 15.0234C21.9891 15.4062 22.5984 15.5977 23.3484 15.5977C24.2156 15.5977 24.8836 15.3828 25.3523 14.9531C25.8289 14.5234 26.0672 13.9141 26.0672 13.125C26.0672 12.2891 25.8211 11.6562 25.3289 11.2266C24.8445 10.7969 24.1297 10.582 23.1844 10.582C23.1375 10.582 23.0633 10.5859 22.9617 10.5938C22.8602 10.6016 22.782 10.6055 22.7273 10.6055V7.60547C22.7742 7.60547 22.8445 7.60938 22.9383 7.61719C23.032 7.625 23.0984 7.62891 23.1375 7.62891C23.9813 7.62891 24.6141 7.44922 25.0359 7.08984C25.4656 6.73047 25.6805 6.19141 25.6805 5.47266C25.6805 4.86328 25.4852 4.37109 25.0945 3.99609C24.7117 3.62109 24.2039 3.43359 23.5711 3.43359C22.8992 3.43359 22.3719 3.58594 21.9891 3.89062C21.6063 4.19531 21.3797 4.63281 21.3094 5.20312H18.0516C18.1375 3.75 18.6648 2.63281 19.6336 1.85156C20.6023 1.0625 21.9539 0.667969 23.6883 0.667969C25.3523 0.667969 26.6727 1.07812 27.6492 1.89844C28.6258 2.71875 29.1141 3.82812 29.1141 5.22656C29.1141 6.20312 28.8484 7.03516 28.3172 7.72266C27.7938 8.40234 27.0984 8.82031 26.2313 8.97656C27.2391 9.19531 28.0398 9.69922 28.6336 10.4883C29.2273 11.2773 29.5242 12.2383 29.5242 13.3711C29.5242 14.9414 28.9656 16.1836 27.8484 17.0977C26.7313 18.0039 25.2078 18.457 23.2781 18.457C21.5203 18.457 20.1063 18.0117 19.0359 17.1211C17.9734 16.2305 17.4422 15.0586 17.4422 13.6055V13.4648Z" fill="#8FC719"/>
</svg>
