<svg width="37" height="37" viewBox="0 0 37 37" fill="none" xmlns="http://www.w3.org/2000/svg">
<g clip-path="url(#clip0_63_529)">
<rect width="37" height="37" fill="white"/>
<path d="M31.2721 31.1838C24.2427 38.2132 12.8457 38.2132 5.81627 31.1838C-1.21317 24.1543 -1.21317 12.7574 5.81627 5.72792C12.8457 -1.30152 24.2427 -1.30152 31.2721 5.72792C38.3015 12.7574 38.3015 24.1543 31.2721 31.1838Z" fill="white"/>
<path fill-rule="evenodd" clip-rule="evenodd" d="M6.52338 30.4767C13.1623 37.1156 23.9261 37.1156 30.565 30.4767C37.2039 23.8377 37.2039 13.0739 30.565 6.43503C23.9261 -0.203885 13.1623 -0.203884 6.52338 6.43503C-0.115537 13.0739 -0.115536 23.8377 6.52338 30.4767ZM5.81627 31.1838C12.8457 38.2132 24.2427 38.2132 31.2721 31.1838C38.3015 24.1543 38.3015 12.7574 31.2721 5.72792C24.2427 -1.30152 12.8457 -1.30152 5.81627 5.72792C-1.21317 12.7574 -1.21317 24.1543 5.81627 31.1838Z" fill="#DBD9D9"/>
<path fill-rule="evenodd" clip-rule="evenodd" d="M11.1508 23.7279L23.8787 11L26 13.1213L13.2721 25.8493L11.1508 23.7279Z" fill="#878787"/>
<path fill-rule="evenodd" clip-rule="evenodd" d="M13.201 11.2218L25.9289 23.9497L23.8076 26.071L11.0797 13.3431L13.201 11.2218Z" fill="#878787"/>
</g>
<defs>
<clipPath id="clip0_63_529">
<rect width="37" height="37" fill="white"/>
</clipPath>
</defs>
</svg>
