<?xml version="1.0" encoding="utf-8"?>
<!-- Generator: Adobe Illustrator 23.0.1, SVG Export Plug-In . SVG Version: 6.00 Build 0)  -->
<svg version="1.1" id="Layer_1" xmlns="http://www.w3.org/2000/svg" xmlns:xlink="http://www.w3.org/1999/xlink" x="0px" y="0px"
	 viewBox="0 0 173 84" style="enable-background:new 0 0 173 84;" xml:space="preserve">
<style type="text/css">
	.st0{fill:#FFFFFF;}
	.st1{fill:#9FBB3B;}
</style>
<g>
	<g>
		<g>
			<g>
				<path class="st0" d="M7.69,38.5c-0.84,0-1.53-0.1-2.02-0.2c-0.44-0.15-0.84-0.39-1.18-0.74c-0.2-0.2-0.35-0.44-0.39-0.79
					c-0.1-0.34-0.15-0.99-0.15-1.87v-9.22H0V35c0,1.23,0.1,2.17,0.35,2.86c0.25,0.69,0.64,1.33,1.23,1.87
					c0.64,0.59,1.38,1.03,2.17,1.28s2.02,0.34,3.65,0.34h4.73v-2.91H7.69V38.5z"/>
				<path class="st0" d="M20.85,25.68c-2.81,0-4.93,0.69-6.26,1.97c-1.33,1.33-2.02,3.4-2.02,6.11c0,1.43,0.25,2.66,0.69,3.7
					s1.13,1.87,2.02,2.51c0.69,0.49,1.43,0.84,2.22,1.08c0.79,0.2,1.87,0.3,3.25,0.3h6.31v-3.01H20.9c-1.48,0-2.51-0.34-3.11-0.99
					c-0.59-0.64-0.89-1.82-0.89-3.45c0-1.92,0.3-3.25,0.94-4.09c0.59-0.79,1.63-1.18,3.06-1.18h6.11v-2.96
					C27.01,25.68,20.85,25.68,20.85,25.68z"/>
			</g>
			<polygon class="st0" points="41.1,25.68 41.06,25.78 36.92,31.4 32.82,25.78 32.78,25.68 28.24,25.68 28.44,25.98 34.94,34.51 
				34.94,41.41 38.94,41.41 38.94,34.51 45.54,25.98 45.74,25.68 			"/>
		</g>
		<g>
			<path class="st0" d="M76.49,41.46h4.24L75.21,35l0.94-0.15c3.35-0.84,3.15-3.99,3.15-5.18c0-2.07-1.73-3.45-3.65-3.75
				c-0.74-0.1-1.63-0.15-2.61-0.15h-6.75v15.67h3.65v-5.96h1.72L76.49,41.46z M69.94,32.93v-4.24h1.77c0.59,0,1.23,0,1.63,0.05
				c0.44,0.05,1.08,0.05,1.43,0.64c0.25,0.44,0.3,1.03,0.3,1.63c-0.05,1.08-0.64,1.92-1.77,1.92c-0.49,0-1.08,0-1.77,0H69.94z"/>
			<path class="st0" d="M95.22,27.66c-1.48-1.43-3.5-2.17-6.11-2.17s-4.63,0.74-6.11,2.17c-1.48,1.48-2.17,3.45-2.17,6.01
				s0.69,4.53,2.17,6.01c1.43,1.48,3.5,2.22,6.11,2.22c2.61,0,4.63-0.74,6.11-2.17c1.48-1.48,2.17-3.4,2.17-6.01
				C97.44,31.06,96.7,29.09,95.22,27.66z M92.76,36.82c-0.25,0.64-1.04,2.46-3.6,2.42s-3.6-1.87-3.89-2.66
				c-0.25-0.79-0.39-1.77-0.39-2.91s0.15-2.12,0.39-2.91c0.25-0.84,0.84-1.82,1.97-2.37c1.08-0.49,2.76-0.49,3.89,0.2
				c0.74,0.44,1.38,1.33,1.63,2.17c0.25,0.79,0.39,1.77,0.39,2.91C93.2,34.85,93.1,35.94,92.76,36.82z"/>
			<path class="st0" d="M113.55,25.83h-3.89v9.96c0,3.4-1.68,3.84-3.15,3.84c-1.33-0.05-3.15-0.34-3.15-3.84v-9.96h-3.89v10.25
				c0,1.92,0.54,3.3,1.73,4.29c1.18,0.99,3.01,1.53,5.32,1.53c2.37,0,4.19-0.49,5.37-1.53c1.13-0.99,1.68-2.37,1.68-4.29
				L113.55,25.83L113.55,25.83z"/>
			<path class="st0" d="M126.52,34.8c1.38-0.89,2.02-2.42,2.02-4.34c0-3.5-2.61-4.63-6.36-4.63h-6.46v15.67h3.7v-5.72h2.71
				C123.56,35.79,125.33,35.54,126.52,34.8z M123.26,32.93c-0.49,0.35-1.18,0.49-2.02,0.49c-0.39,0-0.84,0-1.28,0h-0.54v-5.08h0.89
				c0.74,0,1.33,0,1.73,0c0.49,0.05,0.74,0.05,1.28,0.3c0.54,0.25,0.94,1.28,0.94,2.02C124.25,31.85,123.9,32.49,123.26,32.93z"/>
			<path class="st0" d="M50.42,37.61c0.39,0.99,1.08,1.82,1.92,2.42c0.64,0.49,1.38,0.84,2.12,1.03c0.79,0.2,1.87,0.35,3.25,0.35
				h6.31v-8.87h-6.85v2.56h3.3v3.45h-1.18c-1.82,0-3.45,0-4.24-0.89c-0.79-0.89-1.04-1.58-1.04-3.65c0-2.32,0.35-3.8,1.38-4.58
				c0.84-0.64,2.17-0.79,3.94-0.79h4.68v-2.86h-6.21c-2.76,0-4.83,0.64-6.11,1.97c-1.28,1.28-1.92,3.35-1.92,6.16
				C49.78,35.3,49.98,36.58,50.42,37.61z"/>
		</g>
	</g>
	<g>
		<path class="st0" d="M172.75,34.8c-0.49-1.43-10.5-20.4-11.63-22.57l-4.04,6.8c0.59,1.08,6.9,13.26,7.29,14.19l0.1,0.2
			c0.25,0.59,0.15,1.38-0.25,1.92c-0.39,0.54-1.08,0.89-1.73,0.89h-19.27c-1.18,0-2.17-0.99-2.17-2.17c0-0.59,0.2-0.89,0.2-0.94l0,0
			c0.3-0.59,6.7-13.01,7.25-14.15l-4.09-6.8c-1.18,2.22-11.29,21.34-11.63,22.62c-0.64,2.17,0.1,3.75,0.84,4.68
			c1.23,1.68,3.3,2.51,4.63,2.51h28.73c2.02,0.05,3.84-0.89,4.98-2.46C172.7,38.55,173.39,36.48,172.75,34.8z"/>
		<path class="st0" d="M157.67,7.6L157.67,7.6c0.25-0.59,0.35-1.23,0.35-1.92c0-2.91-2.32-5.27-5.22-5.27s-5.27,2.37-5.27,5.27
			c0,0.64,0.1,1.33,0.35,1.87c0.99,2.81,4.14,6.06,4.93,9.41c0.69-2.86,3.75-6.7,4.83-9.17C157.62,7.74,157.62,7.65,157.67,7.6
			L157.67,7.6z"/>
	</g>
</g>
<g>
	<g>
		<g>
			<g>
				<path class="st1" d="M7.69,80.55c-0.84,0-1.53-0.1-2.02-0.2c-0.44-0.15-0.84-0.39-1.18-0.74c-0.2-0.2-0.35-0.44-0.39-0.79
					c-0.1-0.35-0.15-0.99-0.15-1.87v-9.22H0v9.32c0,1.23,0.1,2.17,0.35,2.86s0.64,1.33,1.23,1.87c0.64,0.59,1.38,1.04,2.17,1.28
					s2.02,0.35,3.65,0.35h4.73V80.5H7.69V80.55z"/>
				<path class="st1" d="M20.86,67.73c-2.81,0-4.93,0.69-6.26,1.97c-1.33,1.33-2.02,3.4-2.02,6.11c0,1.43,0.25,2.66,0.69,3.7
					c0.44,1.04,1.13,1.87,2.02,2.51c0.69,0.49,1.43,0.84,2.22,1.08c0.79,0.2,1.87,0.3,3.25,0.3h6.31v-3.01h-6.16
					c-1.48,0-2.51-0.35-3.11-0.99c-0.59-0.64-0.89-1.82-0.89-3.45c0-1.92,0.3-3.25,0.94-4.09c0.59-0.79,1.63-1.18,3.06-1.18h6.11
					v-2.96C27.02,67.73,20.86,67.73,20.86,67.73z"/>
			</g>
			<polygon class="st1" points="41.12,67.73 41.07,67.83 36.93,73.45 32.84,67.83 32.79,67.73 28.25,67.73 28.45,68.03 34.96,76.56 
				34.96,83.46 38.95,83.46 38.95,76.56 45.56,68.03 45.76,67.73 			"/>
		</g>
		<g>
			<path class="st1" d="M76.53,83.51h4.24l-5.52-6.46l0.94-0.15c3.35-0.84,3.16-3.99,3.16-5.18c0-2.07-1.73-3.45-3.65-3.75
				c-0.74-0.1-1.63-0.15-2.61-0.15h-6.76v15.68h3.65v-5.97h1.73L76.53,83.51z M69.97,74.98v-4.24h1.78c0.59,0,1.23,0,1.63,0.05
				c0.44,0.05,1.08,0.05,1.43,0.64c0.25,0.44,0.3,1.04,0.3,1.63c-0.05,1.08-0.64,1.92-1.78,1.92c-0.49,0-1.08,0-1.78,0H69.97z"/>
			<path class="st1" d="M95.26,69.71c-1.48-1.43-3.5-2.17-6.11-2.17c-2.61,0-4.64,0.74-6.11,2.17c-1.48,1.48-2.17,3.45-2.17,6.02
				c0,2.56,0.69,4.54,2.17,6.02c1.43,1.48,3.5,2.22,6.11,2.22c2.61,0,4.64-0.74,6.11-2.17c1.48-1.48,2.17-3.4,2.17-6.02
				C97.48,73.11,96.74,71.14,95.26,69.71z M92.8,78.88c-0.25,0.64-1.04,2.47-3.6,2.42c-2.56-0.05-3.6-1.87-3.9-2.66
				c-0.25-0.79-0.39-1.78-0.39-2.91s0.15-2.12,0.39-2.91c0.25-0.84,0.84-1.82,1.97-2.37c1.08-0.49,2.76-0.49,3.9,0.2
				c0.74,0.44,1.38,1.33,1.63,2.17c0.25,0.79,0.39,1.78,0.39,2.91C93.24,76.9,93.14,77.99,92.8,78.88z"/>
			<path class="st1" d="M113.61,67.88h-3.9v9.96c0,3.4-1.68,3.85-3.16,3.85c-1.33-0.05-3.16-0.35-3.16-3.85v-9.96h-3.9v10.26
				c0,1.92,0.54,3.3,1.73,4.29c1.18,0.99,3.01,1.53,5.33,1.53c2.37,0,4.19-0.49,5.37-1.53c1.13-0.99,1.68-2.37,1.68-4.29
				L113.61,67.88L113.61,67.88z"/>
			<path class="st1" d="M126.58,76.85c1.38-0.89,2.02-2.42,2.02-4.34c0-3.5-2.61-4.64-6.36-4.64h-6.46v15.68h3.7v-5.72h2.71
				C123.62,77.84,125.39,77.59,126.58,76.85z M123.32,74.98c-0.49,0.35-1.18,0.49-2.02,0.49c-0.39,0-0.84,0-1.28,0h-0.54V70.4h0.89
				c0.74,0,1.33,0,1.73,0c0.49,0.05,0.74,0.05,1.28,0.3c0.54,0.25,0.94,1.28,0.94,2.02C124.31,73.9,123.96,74.54,123.32,74.98z"/>
			<path class="st1" d="M50.44,79.67c0.39,0.99,1.08,1.82,1.92,2.42c0.64,0.49,1.38,0.84,2.12,1.04c0.79,0.2,1.87,0.35,3.25,0.35
				h6.31v-8.88H57.2v2.56h3.3v3.45h-1.18c-1.82,0-3.45,0-4.24-0.89c-0.79-0.89-1.04-1.58-1.04-3.65c0-2.32,0.35-3.8,1.38-4.59
				c0.84-0.64,2.17-0.79,3.94-0.79h4.68v-2.86h-6.21c-2.76,0-4.83,0.64-6.11,1.97c-1.28,1.28-1.92,3.35-1.92,6.16
				C49.8,77.35,50,78.63,50.44,79.67z"/>
		</g>
	</g>
	<g>
		<path class="st1" d="M172.83,76.85c-0.49-1.43-10.5-20.41-11.64-22.58l-4.04,6.8c0.59,1.08,6.9,13.26,7.3,14.2l0.1,0.2
			c0.25,0.59,0.15,1.38-0.25,1.92s-1.08,0.89-1.73,0.89h-19.28c-1.18,0-2.17-0.99-2.17-2.17c0-0.59,0.2-0.89,0.2-0.94l0,0
			c0.3-0.59,6.71-13.02,7.25-14.15l-4.09-6.8c-1.18,2.22-11.29,21.35-11.64,22.63c-0.64,2.17,0.1,3.75,0.84,4.68
			c1.23,1.68,3.3,2.51,4.64,2.51h28.75c2.02,0.05,3.85-0.89,4.98-2.47C172.78,80.6,173.47,78.53,172.83,76.85z"/>
		<path class="st1" d="M157.74,49.64L157.74,49.64c0.25-0.59,0.35-1.23,0.35-1.92c0-2.91-2.32-5.28-5.23-5.28s-5.28,2.37-5.28,5.28
			c0,0.64,0.1,1.33,0.35,1.87c0.99,2.81,4.14,6.06,4.93,9.42c0.69-2.86,3.75-6.71,4.83-9.17C157.69,49.78,157.69,49.69,157.74,49.64
			L157.74,49.64z"/>
	</g>
</g>
</svg>
