<svg width="174" height="43" viewBox="0 0 174 43" fill="none" xmlns="http://www.w3.org/2000/svg">
<path d="M7.69 38.55C6.85 38.55 6.16 38.45 5.67 38.35C5.23 38.2 4.83 37.96 4.49 37.61C4.29 37.41 4.14 37.17 4.1 36.82C4 36.47 3.95 35.83 3.95 34.95V25.73H0V35.05C0 36.28 0.1 37.22 0.35 37.91C0.6 38.6 0.99 39.24 1.58 39.78C2.22 40.37 2.96 40.82 3.75 41.06C4.54 41.3 5.77 41.41 7.4 41.41H12.13V38.5H7.69V38.55Z" fill="#9FBB3B"/>
<path d="M20.86 25.73C18.05 25.73 15.93 26.42 14.6 27.7C13.27 29.03 12.58 31.1 12.58 33.81C12.58 35.24 12.83 36.47 13.27 37.51C13.71 38.55 14.4 39.38 15.29 40.02C15.98 40.51 16.72 40.86 17.51 41.1C18.3 41.3 19.38 41.4 20.76 41.4H27.07V38.39H20.91C19.43 38.39 18.4 38.04 17.8 37.4C17.21 36.76 16.91 35.58 16.91 33.95C16.91 32.03 17.21 30.7 17.85 29.86C18.44 29.07 19.48 28.68 20.91 28.68H27.02V25.72C27.02 25.73 20.86 25.73 20.86 25.73Z" fill="#9FBB3B"/>
<path d="M41.12 25.73L41.07 25.83L36.93 31.45L32.84 25.83L32.79 25.73H28.25L28.45 26.03L34.96 34.56V41.46H38.95V34.56L45.56 26.03L45.76 25.73H41.12Z" fill="#9FBB3B"/>
<path d="M76.5301 41.5101H80.7701L75.2501 35.0501L76.1901 34.9001C79.5401 34.0601 79.3501 30.9101 79.3501 29.7201C79.3501 27.6501 77.6201 26.2701 75.7001 25.9701C74.9601 25.8701 74.0701 25.8201 73.0901 25.8201H66.3301V41.5001H69.9801V35.5301H71.7101L76.5301 41.5101ZM69.9701 32.9801V28.7401H71.7501C72.3401 28.7401 72.9801 28.7401 73.3801 28.7901C73.8201 28.8401 74.4601 28.8401 74.8101 29.4301C75.0601 29.8701 75.1101 30.4701 75.1101 31.0601C75.0601 32.1401 74.4701 32.9801 73.3301 32.9801C72.8401 32.9801 72.2501 32.9801 71.5501 32.9801H69.9701Z" fill="#9FBB3B"/>
<path d="M95.26 27.71C93.78 26.28 91.76 25.54 89.15 25.54C86.54 25.54 84.51 26.28 83.04 27.71C81.56 29.19 80.87 31.16 80.87 33.73C80.87 36.29 81.56 38.27 83.04 39.75C84.47 41.23 86.54 41.97 89.15 41.97C91.76 41.97 93.79 41.23 95.26 39.8C96.74 38.32 97.43 36.4 97.43 33.78C97.48 31.11 96.74 29.14 95.26 27.71ZM92.8 36.88C92.55 37.52 91.76 39.35 89.2 39.3C86.64 39.25 85.6 37.43 85.3 36.64C85.05 35.85 84.91 34.86 84.91 33.73C84.91 32.6 85.06 31.61 85.3 30.82C85.55 29.98 86.14 29 87.27 28.45C88.35 27.96 90.03 27.96 91.17 28.65C91.91 29.09 92.55 29.98 92.8 30.82C93.05 31.61 93.19 32.6 93.19 33.73C93.24 34.9 93.14 35.99 92.8 36.88Z" fill="#9FBB3B"/>
<path d="M113.61 25.8801H109.71V35.8401C109.71 39.2401 108.03 39.6901 106.55 39.6901C105.22 39.6401 103.39 39.3401 103.39 35.8401V25.8801H99.49V36.1401C99.49 38.0601 100.03 39.4401 101.22 40.4301C102.4 41.4201 104.23 41.9601 106.55 41.9601C108.92 41.9601 110.74 41.4701 111.92 40.4301C113.05 39.4401 113.6 38.0601 113.6 36.1401L113.61 25.8801Z" fill="#9FBB3B"/>
<path d="M126.58 34.8501C127.96 33.9601 128.6 32.4301 128.6 30.5101C128.6 27.0101 125.99 25.8701 122.24 25.8701H115.78V41.5501H119.48V35.8301H122.19C123.62 35.8401 125.39 35.5901 126.58 34.8501ZM123.32 32.9801C122.83 33.3301 122.14 33.4701 121.3 33.4701C120.91 33.4701 120.46 33.4701 120.02 33.4701H119.48V28.4001H120.37C121.11 28.4001 121.7 28.4001 122.1 28.4001C122.59 28.4501 122.84 28.4501 123.38 28.7001C123.92 28.9501 124.32 29.9801 124.32 30.7201C124.31 31.9001 123.96 32.5401 123.32 32.9801Z" fill="#9FBB3B"/>
<path d="M50.44 37.6701C50.83 38.6601 51.5201 39.4901 52.3601 40.0901C53.0001 40.5801 53.74 40.9301 54.48 41.1301C55.27 41.3301 56.35 41.4801 57.73 41.4801H64.0401V32.6001H57.2001V35.1601H60.5V38.6101H59.32C57.5 38.6101 55.8701 38.6101 55.0801 37.7201C54.2901 36.8301 54.0401 36.1401 54.0401 34.0701C54.0401 31.7501 54.39 30.2701 55.42 29.4801C56.26 28.8401 57.5901 28.6901 59.3601 28.6901H64.0401V25.8301H57.8301C55.0701 25.8301 53.0001 26.4701 51.7201 27.8001C50.4401 29.0801 49.8 31.1501 49.8 33.9601C49.8 35.3501 50 36.6301 50.44 37.6701Z" fill="#9FBB3B"/>
<path d="M172.83 34.85C172.34 33.42 162.33 14.44 161.19 12.27L157.15 19.07C157.74 20.15 164.05 32.33 164.45 33.27L164.55 33.47C164.8 34.06 164.7 34.85 164.3 35.39C163.9 35.93 163.22 36.28 162.57 36.28H143.29C142.11 36.28 141.12 35.29 141.12 34.11C141.12 33.52 141.32 33.22 141.32 33.17C141.62 32.58 148.03 20.15 148.57 19.02L144.48 12.22C143.3 14.44 133.19 33.57 132.84 34.85C132.2 37.02 132.94 38.6 133.68 39.53C134.91 41.21 136.98 42.04 138.32 42.04H167.07C169.09 42.09 170.92 41.15 172.05 39.57C172.78 38.6 173.47 36.53 172.83 34.85Z" fill="#9FBB3B"/>
<path d="M157.74 7.63994C157.99 7.04994 158.09 6.40994 158.09 5.71994C158.09 2.80994 155.77 0.439941 152.86 0.439941C149.95 0.439941 147.58 2.80994 147.58 5.71994C147.58 6.35994 147.68 7.04994 147.93 7.58994C148.92 10.3999 152.07 13.6499 152.86 17.0099C153.55 14.1499 156.61 10.2999 157.69 7.83994C157.69 7.77994 157.69 7.68994 157.74 7.63994Z" fill="#9FBB3B"/>
</svg>
