<svg width="160" height="33" viewBox="0 0 160 33" fill="none" xmlns="http://www.w3.org/2000/svg">
<path d="M7.11203 29.5083C6.33516 29.5083 5.69702 29.4308 5.24385 29.3534C4.83692 29.2372 4.46698 29.0513 4.15254 28.7802C3.96757 28.6253 3.82884 28.4394 3.79185 28.1683C3.69936 27.905 3.65312 27.4016 3.65312 26.72V19.5789H0V26.7974C0 27.7501 0.0924841 28.4781 0.323694 29.0126C0.554905 29.547 0.915593 30.0427 1.46125 30.4609C2.05315 30.9179 2.73753 31.2587 3.46815 31.4523C4.19878 31.6459 5.33633 31.7157 6.84382 31.7157H11.2183V29.4618H7.11203V29.5083Z" fill="#AAD11C"/>
<path d="M19.2832 19.5734C16.6844 19.5734 14.7237 20.1078 13.4937 21.0992C12.2636 22.1293 11.6255 23.7326 11.6255 25.8316C11.6255 26.9391 11.8567 27.8918 12.2636 28.6973C12.6706 29.5028 13.3087 30.1457 14.1318 30.6414C14.7699 31.0209 15.4543 31.292 16.185 31.4779C16.9156 31.6328 17.9144 31.7102 19.1907 31.7102H25.0264V29.3789H19.3294C17.9607 29.3789 17.0081 29.1156 16.4532 28.6121C15.9075 28.1164 15.6301 27.2025 15.6301 25.94C15.6301 24.4529 15.9075 23.4228 16.4994 22.7722C17.0451 22.1603 18.0069 21.8583 19.3294 21.8583H24.9802V19.5657C24.9802 19.5734 19.2832 19.5734 19.2832 19.5734Z" fill="#AAD11C"/>
<path d="M38.0111 19.5745L37.9741 19.6519L34.1453 24.0047L30.3534 19.6519L30.3165 19.5745H26.1177L26.3026 19.8068L32.3141 26.4135V31.7577H36.0135V26.4135L42.1174 19.8068L42.3024 19.5745H38.0111Z" fill="#AAD11C"/>
<path d="M70.7412 31.7966H74.6626L69.5574 26.7931L70.4268 26.677C73.525 26.0264 73.34 23.5866 73.34 22.6649C73.34 21.0617 71.7401 19.9928 69.9644 19.7605C69.28 19.683 68.4569 19.6443 67.5505 19.6443H61.3079V31.7811H64.6835V27.1649H66.2743L70.7412 31.7966ZM64.6835 25.1899V21.9059H66.3205C66.8662 21.9059 67.458 21.9059 67.828 21.9446C68.2349 21.9834 68.8268 21.9833 69.1505 22.4403C69.3817 22.7811 69.428 23.2381 69.428 23.7028C69.3817 24.5393 68.8361 25.1899 67.791 25.1899C67.3378 25.1899 66.7922 25.1899 66.154 25.1899H64.6835Z" fill="#AAD11C"/>
<path d="M88.0638 21.1055C86.6951 19.998 84.8269 19.4248 82.4131 19.4248C79.9992 19.4248 78.131 19.998 76.7623 21.1055C75.3935 22.2518 74.7554 23.7776 74.7554 25.7604C74.7554 27.7432 75.3935 29.269 76.7623 30.4153C78.0848 31.5616 79.9992 32.1348 82.4131 32.1348C84.8269 32.1348 86.6951 31.5616 88.0638 30.454C89.4326 29.3077 90.0707 27.8207 90.0707 25.7991C90.117 23.7389 89.4326 22.2131 88.0638 21.1055ZM85.7887 28.2002C85.5575 28.6959 84.8269 30.1055 82.4593 30.0745C80.0917 30.0435 79.1299 28.6262 78.8617 28.0143C78.6305 27.4024 78.501 26.6434 78.501 25.7604C78.501 24.8775 78.6397 24.1184 78.8617 23.5065C79.0929 22.8559 79.6385 22.0969 80.6836 21.6709C81.6824 21.2914 83.2362 21.2914 84.2812 21.8258C84.9656 22.1666 85.5575 22.8559 85.7887 23.5065C86.0199 24.1184 86.1494 24.8775 86.1494 25.7604C86.1957 26.6744 86.1032 27.5186 85.7887 28.2002Z" fill="#AAD11C"/>
<path d="M105.016 19.689H101.418V27.4032C101.418 30.0366 99.8645 30.3774 98.505 30.3774C97.275 30.3387 95.5918 30.1141 95.5918 27.4032V19.689H91.9941V27.6279C91.9941 29.1149 92.4936 30.1838 93.5941 30.9506C94.6854 31.7173 96.3779 32.1356 98.5143 32.1356C100.706 32.1356 102.389 31.7561 103.481 30.9506C104.526 30.1838 105.034 29.1149 105.034 27.6279L105.016 19.689Z" fill="#AAD11C"/>
<path d="M117.011 26.6365C118.288 25.9471 118.879 24.7621 118.879 23.275C118.879 20.5642 116.466 19.689 112.997 19.689H107.023V31.8258H110.445V27.3955H112.951C114.274 27.4032 115.911 27.2096 117.011 26.6365ZM113.996 25.1881C113.543 25.4592 112.905 25.5676 112.128 25.5676C111.767 25.5676 111.351 25.5676 110.944 25.5676H110.445V21.633H111.268C111.952 21.633 112.498 21.633 112.868 21.633C113.321 21.6717 113.552 21.6717 114.052 21.8654C114.551 22.059 114.921 22.8568 114.921 23.4299C114.912 24.3516 114.588 24.8473 113.996 25.1881Z" fill="#AAD11C"/>
<path d="M46.6302 28.813C46.9909 29.5798 47.629 30.2226 48.4059 30.6874C48.9978 31.0669 49.6822 31.338 50.3666 31.4851C51.0972 31.64 52.096 31.7562 53.3723 31.7562H59.208V24.8862H52.8729V26.869H55.9249V29.5411H54.8335C53.1503 29.5411 51.6428 29.5411 50.9122 28.8517C50.1816 28.1624 49.9504 27.628 49.9504 26.0247C49.9504 24.2278 50.2741 23.0815 51.2267 22.4774C52.0035 21.9817 53.2336 21.8655 54.8705 21.8655H59.1988V19.6504H53.4555C50.903 19.6504 48.9885 20.1461 47.8047 21.1762C46.6209 22.1676 46.0291 23.7709 46.0291 25.9473C46.0383 27.0239 46.2233 28.0153 46.6302 28.813Z" fill="#AAD11C"/>
<path d="M159.766 26.6369C159.313 25.5293 150.055 10.8366 149.01 9.15585L145.274 14.4226C145.819 15.2591 151.655 24.6928 152.016 25.4131L152.108 25.568C152.34 26.025 152.247 26.6369 151.877 27.0551C151.516 27.4733 150.878 27.7444 150.277 27.7444H132.455C131.364 27.7444 130.449 26.9777 130.449 26.0637C130.449 25.6067 130.634 25.3744 130.634 25.3357C130.911 24.8787 136.83 15.2591 137.339 14.3761L133.556 9.10938C132.465 10.8288 123.115 25.6377 122.8 26.6291C122.208 28.3098 122.893 29.5336 123.577 30.2539C124.715 31.5551 126.629 32.1979 127.859 32.1979H154.43C156.298 32.2367 157.981 31.5086 159.035 30.2926C159.72 29.5413 160.358 27.9381 159.766 26.6369Z" fill="#AAD11C"/>
<path d="M145.82 5.56883C146.051 5.11186 146.143 4.61617 146.143 4.08174C146.143 1.82788 143.998 0 141.316 0C138.634 0 136.442 1.83562 136.442 4.08174C136.442 4.57744 136.534 5.11186 136.765 5.5301C137.681 7.70652 140.594 10.2237 141.325 12.8184C141.963 10.6032 144.793 7.62907 145.792 5.71599C145.773 5.67726 145.773 5.60756 145.82 5.56883Z" fill="#AAD11C"/>
</svg>
