<svg width="174" height="42" viewBox="0 0 174 42" fill="none" xmlns="http://www.w3.org/2000/svg">
<path d="M7.69 38.4999C6.85 38.4999 6.16 38.3999 5.67 38.2999C5.23 38.1499 4.83 37.9099 4.49 37.5599C4.29 37.3599 4.14 37.1199 4.1 36.7699C4 36.4299 3.95 35.7799 3.95 34.8999V25.6799H0V34.9999C0 36.2299 0.1 37.1699 0.35 37.8599C0.6 38.5499 0.99 39.1899 1.58 39.7299C2.22 40.3199 2.96 40.7599 3.75 41.0099C4.54 41.2599 5.77 41.3499 7.4 41.3499H12.13V38.4399H7.69V38.4999Z" fill="white"/>
<path d="M20.8499 25.6799C18.0399 25.6799 15.9199 26.3699 14.5899 27.6499C13.2599 28.9799 12.5699 31.0499 12.5699 33.7599C12.5699 35.1899 12.8199 36.4199 13.2599 37.4599C13.6999 38.4999 14.3899 39.3299 15.2799 39.9699C15.9699 40.4599 16.7099 40.8099 17.4999 41.0499C18.2899 41.2499 19.3699 41.3499 20.7499 41.3499H27.0599V38.3399H20.8999C19.4199 38.3399 18.3899 37.9999 17.7899 37.3499C17.1999 36.7099 16.8999 35.5299 16.8999 33.8999C16.8999 31.9799 17.1999 30.6499 17.8399 29.8099C18.4299 29.0199 19.4699 28.6299 20.8999 28.6299H27.0099V25.6699C27.0099 25.6799 20.8499 25.6799 20.8499 25.6799Z" fill="white"/>
<path d="M41.1 25.6799L41.06 25.7799L36.92 31.3999L32.82 25.7799L32.78 25.6799H28.24L28.44 25.9799L34.94 34.5099V41.4099H38.94V34.5099L45.54 25.9799L45.74 25.6799H41.1Z" fill="white"/>
<path d="M76.49 41.46H80.73L75.21 35L76.15 34.85C79.5 34.01 79.3 30.86 79.3 29.67C79.3 27.6 77.57 26.22 75.65 25.92C74.91 25.82 74.02 25.77 73.04 25.77H66.29V41.44H69.94V35.48H71.66L76.49 41.46ZM69.94 32.93V28.69H71.71C72.3 28.69 72.94 28.69 73.34 28.74C73.78 28.79 74.42 28.79 74.77 29.38C75.02 29.82 75.07 30.41 75.07 31.01C75.02 32.09 74.43 32.93 73.3 32.93C72.81 32.93 72.22 32.93 71.53 32.93H69.94Z" fill="white"/>
<path d="M95.2201 27.66C93.7401 26.23 91.7201 25.49 89.1101 25.49C86.5001 25.49 84.4801 26.23 83.0001 27.66C81.5201 29.14 80.8301 31.11 80.8301 33.67C80.8301 36.23 81.5201 38.2 83.0001 39.68C84.4301 41.16 86.5001 41.9 89.1101 41.9C91.7201 41.9 93.7401 41.16 95.2201 39.73C96.7001 38.25 97.3901 36.33 97.3901 33.72C97.4401 31.06 96.7001 29.09 95.2201 27.66ZM92.7601 36.82C92.5101 37.46 91.7201 39.28 89.1601 39.24C86.6001 39.2 85.5601 37.37 85.2701 36.58C85.0201 35.79 84.8801 34.81 84.8801 33.67C84.8801 32.53 85.0301 31.55 85.2701 30.76C85.5201 29.92 86.1101 28.94 87.2401 28.39C88.3201 27.9 90.0001 27.9 91.1301 28.59C91.8701 29.03 92.5101 29.92 92.7601 30.76C93.0101 31.55 93.1501 32.53 93.1501 33.67C93.2001 34.85 93.1001 35.94 92.7601 36.82Z" fill="white"/>
<path d="M113.55 25.8301H109.66V35.7901C109.66 39.1901 107.98 39.6301 106.51 39.6301C105.18 39.5801 103.36 39.2901 103.36 35.7901V25.8301H99.47V36.0801C99.47 38.0001 100.01 39.3801 101.2 40.3701C102.38 41.3601 104.21 41.9001 106.52 41.9001C108.89 41.9001 110.71 41.4101 111.89 40.3701C113.02 39.3801 113.57 38.0001 113.57 36.0801L113.55 25.8301Z" fill="white"/>
<path d="M126.52 34.8001C127.9 33.9101 128.54 32.3801 128.54 30.4601C128.54 26.9601 125.93 25.8301 122.18 25.8301H115.72V41.5001H119.42V35.7801H122.13C123.56 35.7901 125.33 35.5401 126.52 34.8001ZM123.26 32.9301C122.77 33.2801 122.08 33.4201 121.24 33.4201C120.85 33.4201 120.4 33.4201 119.96 33.4201H119.42V28.3401H120.31C121.05 28.3401 121.64 28.3401 122.04 28.3401C122.53 28.3901 122.78 28.3901 123.32 28.6401C123.86 28.8901 124.26 29.9201 124.26 30.6601C124.25 31.8501 123.9 32.4901 123.26 32.9301Z" fill="white"/>
<path d="M50.42 37.61C50.81 38.6 51.5 39.43 52.34 40.03C52.98 40.52 53.72 40.87 54.46 41.06C55.25 41.26 56.33 41.41 57.71 41.41H64.02V32.54H57.17V35.1H60.47V38.55H59.29C57.47 38.55 55.84 38.55 55.05 37.66C54.26 36.77 54.01 36.08 54.01 34.01C54.01 31.69 54.36 30.21 55.39 29.43C56.23 28.79 57.56 28.64 59.33 28.64H64.01V25.78H57.8C55.04 25.78 52.97 26.42 51.69 27.75C50.41 29.03 49.77 31.1 49.77 33.91C49.78 35.3 49.98 36.58 50.42 37.61Z" fill="white"/>
<path d="M172.75 34.7999C172.26 33.3699 162.25 14.3999 161.12 12.2299L157.08 19.0299C157.67 20.1099 163.98 32.2899 164.37 33.2199L164.47 33.4199C164.72 34.0099 164.62 34.7999 164.22 35.3399C163.83 35.8799 163.14 36.2299 162.49 36.2299H143.22C142.04 36.2299 141.05 35.2399 141.05 34.0599C141.05 33.4699 141.25 33.1699 141.25 33.1199C141.55 32.5299 147.95 20.1099 148.5 18.9699L144.41 12.1699C143.23 14.3899 133.12 33.5099 132.78 34.7899C132.14 36.9599 132.88 38.5399 133.62 39.4699C134.85 41.1499 136.92 41.9799 138.25 41.9799H166.98C169 42.0299 170.82 41.0899 171.96 39.5199C172.7 38.5499 173.39 36.4799 172.75 34.7999Z" fill="white"/>
<path d="M157.67 7.59991C157.92 7.00991 158.02 6.36991 158.02 5.67991C158.02 2.76991 155.7 0.409912 152.8 0.409912C149.9 0.409912 147.53 2.77991 147.53 5.67991C147.53 6.31991 147.63 7.00991 147.88 7.54991C148.87 10.3599 152.02 13.6099 152.81 16.9599C153.5 14.0999 156.56 10.2599 157.64 7.78991C157.62 7.73991 157.62 7.64991 157.67 7.59991Z" fill="white"/>
</svg>
