<svg width="160" height="34" viewBox="0 0 160 34" fill="none" xmlns="http://www.w3.org/2000/svg">
<path d="M7.11203 30.3569C6.33516 30.3569 5.69702 30.2794 5.24385 30.202C4.83692 30.0858 4.46698 29.8999 4.15254 29.6288C3.96757 29.4739 3.82884 29.288 3.79185 29.017C3.69936 28.7536 3.65312 28.2502 3.65312 27.5686V20.4275H0V27.6461C0 28.5987 0.0924841 29.3268 0.323694 29.8612C0.554905 30.3956 0.915593 30.8913 1.46125 31.3096C2.05315 31.7665 2.73753 32.1073 3.46815 32.3009C4.19878 32.4946 5.33633 32.5643 6.84382 32.5643H11.2183V30.3104H7.11203V30.3569Z" fill="white"/>
<path d="M19.2832 20.4221C16.6844 20.4221 14.7237 20.9565 13.4937 21.9479C12.2636 22.978 11.6255 24.5812 11.6255 26.6802C11.6255 27.7878 11.8567 28.7404 12.2636 29.5459C12.6706 30.3515 13.3087 30.9943 14.1318 31.49C14.7699 31.8695 15.4543 32.1406 16.185 32.3265C16.9156 32.4814 17.9144 32.5588 19.1907 32.5588H25.0264V30.2275H19.3294C17.9607 30.2275 17.0081 29.9642 16.4532 29.4607C15.9075 28.9651 15.6301 28.0511 15.6301 26.7886C15.6301 25.3016 15.9075 24.2714 16.4994 23.6208C17.0451 23.009 18.0069 22.7069 19.3294 22.7069H24.9802V20.4143C24.9802 20.4221 19.2832 20.4221 19.2832 20.4221Z" fill="white"/>
<path d="M38.0113 20.4231L37.9743 20.5005L34.1454 24.8534L30.3536 20.5005L30.3166 20.4231H26.1178L26.3028 20.6555L32.3142 27.2621V32.6064H36.0136V27.2621L42.1176 20.6555L42.3025 20.4231H38.0113Z" fill="white"/>
<path d="M70.741 32.6452H74.6623L69.5572 27.6418L70.4265 27.5256C73.5248 26.875 73.3398 24.4352 73.3398 23.5136C73.3398 21.9103 71.7398 20.8415 69.9641 20.6091C69.2797 20.5316 68.4566 20.4929 67.5503 20.4929H61.3076V32.6297H64.6833V28.0136H66.274L70.741 32.6452ZM64.6833 26.0385V22.7545H66.3203C66.8659 22.7545 67.4578 22.7545 67.8277 22.7933C68.2347 22.832 68.8266 22.832 69.1503 23.289C69.3815 23.6297 69.4277 24.0867 69.4277 24.5514C69.3815 25.3879 68.8358 26.0385 67.7908 26.0385C67.3376 26.0385 66.7919 26.0385 66.1538 26.0385H64.6833Z" fill="white"/>
<path d="M88.0638 21.9542C86.6951 20.8466 84.8269 20.2734 82.4131 20.2734C79.9992 20.2734 78.131 20.8466 76.7623 21.9542C75.3935 23.1005 74.7554 24.6263 74.7554 26.609C74.7554 28.5918 75.3935 30.1176 76.7623 31.2639C78.0848 32.4102 79.9992 32.9834 82.4131 32.9834C84.8269 32.9834 86.6951 32.4102 88.0638 31.3027C89.4326 30.1564 90.0707 28.6693 90.0707 26.6478C90.117 24.5875 89.4326 23.0617 88.0638 21.9542ZM85.7887 29.0488C85.5575 29.5445 84.8269 30.9541 82.4593 30.9232C80.0917 30.8922 79.1299 29.4748 78.8617 28.8629C78.6305 28.251 78.501 27.492 78.501 26.609C78.501 25.7261 78.6397 24.9671 78.8617 24.3552C79.0929 23.7046 79.6385 22.9455 80.6836 22.5196C81.6824 22.14 83.2362 22.14 84.2812 22.6745C84.9656 23.0153 85.5575 23.7046 85.7887 24.3552C86.0199 24.9671 86.1494 25.7261 86.1494 26.609C86.1957 27.523 86.1032 28.3672 85.7887 29.0488Z" fill="white"/>
<path d="M105.016 20.5376H101.418V28.2519C101.418 30.8853 99.8644 31.226 98.5049 31.226C97.2749 31.1873 95.5917 30.9627 95.5917 28.2519V20.5376H91.994V28.4765C91.994 29.9636 92.4934 31.0324 93.594 31.7992C94.6853 32.566 96.3778 32.9842 98.5141 32.9842C100.706 32.9842 102.389 32.6047 103.481 31.7992C104.526 31.0324 105.034 29.9636 105.034 28.4765L105.016 20.5376Z" fill="white"/>
<path d="M117.011 27.4851C118.287 26.7958 118.879 25.6107 118.879 24.1236C118.879 21.4128 116.465 20.5376 112.997 20.5376H107.023V32.6744H110.445V28.2441H112.951C114.274 28.2519 115.911 28.0582 117.011 27.4851ZM113.996 26.0367C113.543 26.3078 112.905 26.4162 112.128 26.4162C111.767 26.4162 111.351 26.4162 110.944 26.4162H110.445V22.4817H111.268C111.952 22.4817 112.498 22.4817 112.868 22.4817C113.321 22.5204 113.552 22.5204 114.052 22.714C114.551 22.9076 114.921 23.7054 114.921 24.2786C114.912 25.2002 114.588 25.6959 113.996 26.0367Z" fill="white"/>
<path d="M46.6301 29.6616C46.9908 30.4284 47.6289 31.0713 48.4058 31.536C48.9977 31.9155 49.6821 32.1866 50.3664 32.3338C51.0971 32.4887 52.0959 32.6048 53.3722 32.6048H59.2079V25.7348H52.8728V27.7176H55.9247V30.3897H54.8334C53.1502 30.3897 51.6427 30.3897 50.9121 29.7004C50.1815 29.011 49.9503 28.4766 49.9503 26.8734C49.9503 25.0765 50.274 23.9302 51.2265 23.326C52.0034 22.8303 53.2334 22.7142 54.8704 22.7142H59.1987V20.499H53.4554C50.9028 20.499 48.9884 20.9947 47.8046 22.0248C46.6208 23.0162 46.0289 24.6195 46.0289 26.7959C46.0382 27.8725 46.2231 28.8639 46.6301 29.6616Z" fill="white"/>
<path d="M159.766 27.4855C159.313 26.3779 150.055 11.6852 149.01 10.0045L145.274 15.2712C145.82 16.1077 151.655 25.5414 152.016 26.2617L152.108 26.4166C152.34 26.8736 152.247 27.4855 151.877 27.9037C151.517 28.322 150.878 28.5931 150.277 28.5931H132.456C131.364 28.5931 130.449 27.8263 130.449 26.9123C130.449 26.4554 130.634 26.223 130.634 26.1843C130.911 25.7273 136.83 16.1077 137.339 15.2248L133.556 9.95801C132.465 11.6775 123.115 26.4864 122.8 27.4777C122.208 29.1585 122.893 30.3822 123.577 31.1025C124.715 32.4037 126.629 33.0466 127.859 33.0466H154.43C156.298 33.0853 157.981 32.3573 159.036 31.1412C159.72 30.39 160.358 28.7867 159.766 27.4855Z" fill="white"/>
<path d="M145.82 6.41746C146.051 5.96049 146.143 5.4648 146.143 4.93038C146.143 2.67651 143.998 0.848633 141.316 0.848633C138.634 0.848633 136.442 2.68426 136.442 4.93038C136.442 5.42607 136.534 5.96049 136.765 6.37874C137.681 8.55515 140.594 11.0724 141.325 13.667C141.963 11.4519 144.793 8.4777 145.792 6.56462C145.773 6.5259 145.773 6.45619 145.82 6.41746Z" fill="white"/>
</svg>
