<svg width="183" height="36" viewBox="0 0 183 36" fill="none" xmlns="http://www.w3.org/2000/svg">
<path d="M8.37115 31.1338C7.45061 31.1338 6.71706 31.0475 6.19926 30.8893C5.69584 30.7311 5.27872 30.4722 4.91913 30.0982C4.70338 29.8825 4.55955 29.5948 4.47325 29.2352C4.38694 28.8469 4.32941 28.1709 4.32941 27.2072V17.2107H0V27.3222C0 28.6599 0.129451 29.7099 0.388353 30.4434C0.647254 31.1914 1.10752 31.8818 1.74039 32.4715C2.4308 33.1331 3.22189 33.6078 4.08489 33.8811C4.9479 34.14 6.27117 34.2838 8.02595 34.2838H13.1896V31.1338H8.37115V31.1338Z" fill="#4D4948"/>
<path d="M22.6683 17.2246C19.619 17.2246 17.3321 17.9581 15.865 19.3965C14.4122 20.8348 13.6643 23.0643 13.6643 26.056C13.6643 27.595 13.9088 28.9327 14.3979 30.0546C14.8869 31.1765 15.6348 32.0971 16.6129 32.8018C17.3752 33.334 18.1807 33.7368 19.0437 33.9525C19.8923 34.1826 21.0718 34.2977 22.5533 34.2977H29.3998V31.0039H22.7259C21.1149 31.0039 19.9786 30.6443 19.3458 29.9539C18.6985 29.2347 18.3677 27.9834 18.3677 26.1998C18.3677 24.1286 18.7129 22.6328 19.4033 21.741C20.0649 20.878 21.1868 20.4321 22.7259 20.4321H29.3854V17.2102H22.6683V17.2246Z" fill="#4D4948"/>
<path d="M44.6897 17.2246L44.6178 17.3109L40.1301 23.4382L35.7144 17.3109L35.6569 17.2246H30.7234L30.9535 17.5267L38.0302 26.7896V34.2834H42.3596V26.7896L49.5369 17.5267L49.767 17.2246H44.6897Z" fill="#4D4948"/>
<path d="M126.402 34.3839H130.99L124.992 27.3504L125.999 27.2066C129.623 26.3148 129.422 22.834 129.422 21.5971C129.422 19.3245 127.567 17.843 125.452 17.5122C124.661 17.3827 123.712 17.3252 122.619 17.3252H115.283V34.3552H119.267V27.8682H121.123L126.402 34.3839ZM119.282 25.0635V20.4608H121.224C121.842 20.4608 122.59 20.4608 123.007 20.5039C123.482 20.5471 124.172 20.5615 124.561 21.1943C124.848 21.669 124.906 22.3162 124.877 22.9491C124.834 24.1573 124.201 25.0347 122.921 25.0635C122.374 25.0779 121.741 25.0635 120.965 25.0635H119.282Z" fill="#4D4948"/>
<path d="M146.783 19.3244C145.186 17.7423 142.957 16.9512 140.138 16.9512C137.318 16.9512 135.075 17.7566 133.507 19.3388C131.91 20.9354 131.148 23.0785 131.148 25.8689C131.148 28.6449 131.925 30.7736 133.521 32.3846C135.103 33.9668 137.333 34.7722 140.152 34.7722C142.971 34.7722 145.215 33.9668 146.797 32.399C148.394 30.8168 149.17 28.6737 149.17 25.8545C149.17 23.0354 148.379 20.921 146.783 19.3244ZM144.079 29.3353C143.805 30.0401 142.942 32.025 140.152 31.9675C137.347 31.9099 136.225 29.925 135.938 29.0476C135.664 28.1846 135.521 27.1203 135.521 25.8689C135.521 24.6607 135.664 23.5819 135.952 22.6758C136.24 21.7552 136.844 20.6909 138.11 20.1299C139.275 19.6121 141.087 19.569 142.324 20.3313C143.144 20.8347 143.82 21.7984 144.122 22.7045C144.409 23.5819 144.539 24.6463 144.539 25.8545C144.553 27.149 144.453 28.3716 144.079 29.3353Z" fill="#4D4948"/>
<path d="M166.704 17.354H162.475V28.1991C162.504 31.91 160.677 32.3991 159.023 32.3559C157.556 32.3271 155.614 31.9676 155.585 28.1991V17.354H151.357V28.4868C151.357 30.5724 151.975 32.097 153.241 33.147C154.55 34.2401 156.492 34.7867 159.023 34.7867C161.612 34.7867 163.583 34.2258 164.848 33.1326C166.085 32.0539 166.689 30.5292 166.689 28.4724V17.354H166.704Z" fill="#4D4948"/>
<path d="M180.785 27.1348C182.281 26.1711 183 24.5026 183 22.4026C183 18.591 180.138 17.3684 176.096 17.3684H169.048V34.3984H173.061V28.2279H175.981C177.606 28.2135 179.505 27.9402 180.785 27.1348ZM177.232 25.0923C176.686 25.4663 175.967 25.6389 175.046 25.6533C174.614 25.6676 174.154 25.6676 173.665 25.6676H173.075V20.13H174.039C174.83 20.13 175.463 20.1156 175.923 20.1444C176.456 20.1732 176.743 20.2019 177.29 20.4608C177.88 20.7485 178.325 21.8273 178.325 22.6327C178.325 23.8985 177.951 24.6033 177.232 25.0923Z" fill="#4D4948"/>
<path d="M98.0229 30.1693C98.4832 31.248 99.1735 32.1398 100.094 32.8158C100.813 33.348 101.59 33.7364 102.395 33.9521C103.244 34.1822 104.424 34.2973 105.919 34.2973H112.766V24.6604H105.287V27.4652H108.882V31.2049H107.602C105.632 31.2049 103.877 31.1905 103.014 30.2268C102.151 29.2487 101.863 28.5008 101.863 26.2714C101.863 23.7399 102.223 22.1433 103.374 21.2659C104.308 20.5468 105.747 20.4029 107.674 20.4029H112.766V17.2673H106.034C103.014 17.2673 100.77 17.9865 99.3749 19.4105C97.9941 20.8057 97.3037 23.0639 97.3037 26.1131C97.3181 27.6809 97.5626 29.0474 98.0229 30.1693Z" fill="#4D4948"/>
<path d="M88.2003 29.1399C87.797 27.9412 79.3049 11.8644 78.3302 10.0046L74.8908 15.7631C75.3837 16.7042 80.7165 27.0113 81.0526 27.7619L81.131 27.93C81.3327 28.4341 81.2543 29.1063 80.9182 29.5769C80.5821 30.0474 80.0219 30.3499 79.4729 30.3499H63.1721C62.1638 30.3499 61.346 29.532 61.346 28.5237C61.346 28.0196 61.5028 27.7619 61.514 27.7507C61.514 27.7507 61.5252 27.7507 61.5252 27.7395C61.7941 27.2242 67.1941 16.7154 67.6758 15.7744L64.214 10.0158C63.2281 11.8868 54.6688 28.0868 54.3439 29.1959C53.8173 31.0109 54.4335 32.3553 55.0385 33.1619C56.0916 34.5735 57.8169 35.3018 58.9708 35.3018L83.3157 35.2793C85.0186 35.313 86.5534 34.5399 87.5505 33.1731C88.1555 32.3329 88.7493 30.5515 88.2003 29.1399Z" fill="#C3AE00"/>
<path d="M75.4284 6.09461C75.6301 5.59046 75.7421 5.0415 75.7421 4.45892C75.7421 2.0054 73.7479 0 71.2832 0C68.8184 0 66.8354 1.99419 66.8354 4.45892C66.8354 5.01909 66.9363 5.56805 67.1267 6.0498C67.9446 8.43611 70.6222 11.1921 71.2832 14.0378C71.8769 11.6291 74.4425 8.35768 75.3612 6.25146C75.3836 6.20664 75.406 6.16183 75.4284 6.09461Z" fill="#FFDB00"/>
</svg>
