<svg width="81" height="16" viewBox="0 0 81 16" fill="none" xmlns="http://www.w3.org/2000/svg">
<path d="M1.85742 7.71387V12H0.264648V1.44531H2.06934C2.95345 1.44531 3.62109 1.50684 4.07227 1.62988C4.52799 1.75293 4.92904 1.98535 5.27539 2.32715C5.88151 2.9196 6.18457 3.66699 6.18457 4.56934C6.18457 5.53548 5.861 6.30111 5.21387 6.86621C4.56673 7.43132 3.69401 7.71387 2.5957 7.71387H1.85742ZM1.85742 6.2373H2.45215C3.91504 6.2373 4.64648 5.67448 4.64648 4.54883C4.64648 3.45964 3.89225 2.91504 2.38379 2.91504H1.85742V6.2373ZM10.4693 0.454102V12H8.93125V0.454102H10.4693ZM18.7258 5.3418H20.2707V12H18.7258V11.3027C18.0923 11.8952 17.411 12.1914 16.6818 12.1914C15.7613 12.1914 15.0002 11.8587 14.3986 11.1934C13.8016 10.5143 13.5031 9.66667 13.5031 8.65039C13.5031 7.65234 13.8016 6.82064 14.3986 6.15527C14.9956 5.48991 15.743 5.15723 16.6408 5.15723C17.4156 5.15723 18.1105 5.47624 18.7258 6.11426V5.3418ZM15.0754 8.65039C15.0754 9.28841 15.2463 9.80794 15.5881 10.209C15.939 10.6146 16.3811 10.8174 16.9143 10.8174C17.4839 10.8174 17.9442 10.6214 18.2951 10.2295C18.646 9.82389 18.8215 9.30892 18.8215 8.68457C18.8215 8.06022 18.646 7.54525 18.2951 7.13965C17.9442 6.74316 17.4885 6.54492 16.9279 6.54492C16.3993 6.54492 15.9572 6.74544 15.6018 7.14648C15.2508 7.55208 15.0754 8.05339 15.0754 8.65039ZM25.8338 10.7627L22.8396 5.3418H24.6238L26.6609 9.16992L28.5613 5.3418H30.2977L24.993 15.623H23.2361L25.8338 10.7627ZM39.2979 1.44531L42.2168 8.75977L45.1768 1.44531H46.9199L42.1826 12.793L37.5547 1.44531H39.2979ZM51.0201 5.3418V12H49.482V5.3418H51.0201ZM49.2496 2.57324C49.2496 2.30436 49.3476 2.07194 49.5436 1.87598C49.7395 1.68001 49.9742 1.58203 50.2477 1.58203C50.5257 1.58203 50.7626 1.68001 50.9586 1.87598C51.1546 2.06738 51.2525 2.30208 51.2525 2.58008C51.2525 2.85807 51.1546 3.09505 50.9586 3.29102C50.7672 3.48698 50.5325 3.58496 50.2545 3.58496C49.9765 3.58496 49.7395 3.48698 49.5436 3.29102C49.3476 3.09505 49.2496 2.85579 49.2496 2.57324ZM59.2766 0.454102H60.8215V12H59.2766V11.3027C58.6704 11.8952 57.9846 12.1914 57.2189 12.1914C56.3075 12.1914 55.551 11.8587 54.9494 11.1934C54.3524 10.5143 54.0539 9.66667 54.0539 8.65039C54.0539 7.6569 54.3524 6.82747 54.9494 6.16211C55.5419 5.49219 56.287 5.15723 57.1848 5.15723C57.9641 5.15723 58.6613 5.47624 59.2766 6.11426V0.454102ZM55.6262 8.65039C55.6262 9.28841 55.7971 9.80794 56.1389 10.209C56.4898 10.6146 56.9318 10.8174 57.465 10.8174C58.0347 10.8174 58.495 10.6214 58.8459 10.2295C59.1968 9.82389 59.3723 9.30892 59.3723 8.68457C59.3723 8.06022 59.1968 7.54525 58.8459 7.13965C58.495 6.74316 58.0393 6.54492 57.4787 6.54492C56.9501 6.54492 56.508 6.74544 56.1525 7.14648C55.8016 7.55208 55.6262 8.05339 55.6262 8.65039ZM70.2264 9.0332H65.4549C65.4959 9.58008 65.6736 10.0153 65.9881 10.3389C66.3025 10.6579 66.7059 10.8174 67.198 10.8174C67.5809 10.8174 67.8976 10.7262 68.1482 10.5439C68.3943 10.3617 68.6746 10.0244 68.9891 9.53223L70.2879 10.2568C70.0874 10.5986 69.8755 10.8926 69.6521 11.1387C69.4288 11.3802 69.1896 11.5807 68.9344 11.7402C68.6792 11.8952 68.4034 12.0091 68.1072 12.082C67.811 12.1549 67.4897 12.1914 67.1434 12.1914C66.1499 12.1914 65.3523 11.8724 64.7508 11.2344C64.1492 10.5918 63.8484 9.73958 63.8484 8.67773C63.8484 7.625 64.1401 6.77279 64.7234 6.12109C65.3113 5.47852 66.0906 5.15723 67.0613 5.15723C68.0411 5.15723 68.8159 5.4694 69.3855 6.09375C69.9506 6.71354 70.2332 7.57259 70.2332 8.6709L70.2264 9.0332ZM68.6473 7.77539C68.4331 6.95508 67.9158 6.54492 67.0955 6.54492C66.9087 6.54492 66.7332 6.57454 66.5691 6.63379C66.4051 6.68848 66.2547 6.77051 66.118 6.87988C65.9858 6.9847 65.8719 7.1123 65.7762 7.2627C65.6805 7.41309 65.6075 7.58398 65.5574 7.77539H68.6473ZM73.0004 8.62305C73.0004 7.66146 73.3445 6.84342 74.0326 6.16895C74.7208 5.49447 75.5593 5.15723 76.5482 5.15723C77.5417 5.15723 78.3848 5.49674 79.0775 6.17578C79.7611 6.85482 80.1029 7.6888 80.1029 8.67773C80.1029 9.67578 79.7589 10.512 79.0707 11.1865C78.378 11.8564 77.5281 12.1914 76.5209 12.1914C75.5229 12.1914 74.6866 11.8496 74.0121 11.166C73.3376 10.4915 73.0004 9.64388 73.0004 8.62305ZM74.5727 8.65039C74.5727 9.31576 74.7504 9.84212 75.1059 10.2295C75.4704 10.6214 75.9512 10.8174 76.5482 10.8174C77.1498 10.8174 77.6306 10.6237 77.9906 10.2363C78.3506 9.84896 78.5307 9.33171 78.5307 8.68457C78.5307 8.03743 78.3506 7.52018 77.9906 7.13281C77.626 6.74089 77.1452 6.54492 76.5482 6.54492C75.9604 6.54492 75.4841 6.74089 75.1195 7.13281C74.7549 7.52474 74.5727 8.0306 74.5727 8.65039Z" fill="#8FC719"/>
</svg>
