<svg width="20" height="17" viewBox="0 0 20 17" fill="none" xmlns="http://www.w3.org/2000/svg">
<path d="M6.66016 0L8.20703 2.87891C5.74349 4.13932 4.33984 5.77214 3.99609 7.77734C3.91016 8.23568 3.86719 8.69401 3.86719 9.15234C4.01042 9.1237 4.16797 9.10938 4.33984 9.10938C5.77214 9.10938 6.80339 9.66797 7.43359 10.7852C7.72005 11.3008 7.86328 11.8451 7.86328 12.418C7.86328 14.1654 7.16146 15.3255 5.75781 15.8984C5.32812 16.0703 4.85547 16.1562 4.33984 16.1562C1.99089 16.1562 0.58724 14.7956 0.128906 12.0742C0.0429688 11.5013 0 10.8854 0 10.2266C0.0286458 5.72917 2.2487 2.32031 6.66016 0ZM17.7031 0L19.207 2.87891C16.7721 4.16797 15.3685 5.8151 14.9961 7.82031C14.9388 8.25 14.9102 8.69401 14.9102 9.15234C15.0247 9.1237 15.168 9.10938 15.3398 9.10938C16.7721 9.10938 17.8034 9.66797 18.4336 10.7852C18.7201 11.3008 18.8633 11.8451 18.8633 12.418C18.8633 14.1654 18.1615 15.3255 16.7578 15.8984C16.3281 16.0703 15.8555 16.1562 15.3398 16.1562C12.819 16.1562 11.4154 14.5521 11.1289 11.3438C11.1003 10.9714 11.0859 10.599 11.0859 10.2266C11.1146 5.67188 13.3203 2.26302 17.7031 0Z" fill="#8FC719"/>
</svg>
