<svg width="20" height="17" viewBox="0 0 20 17" fill="none" xmlns="http://www.w3.org/2000/svg">
<path d="M12.6328 16.457L11.0859 13.5781C13.5495 12.3177 14.9531 10.6849 15.2969 8.67969C15.3828 8.22135 15.4258 7.76302 15.4258 7.30469C15.2826 7.33333 15.125 7.34766 14.9531 7.34766C13.5208 7.34766 12.4896 6.78906 11.8594 5.67187C11.5729 5.15625 11.4297 4.61198 11.4297 4.03906C11.4297 2.29167 12.1315 1.13151 13.5352 0.558593C13.9648 0.386718 14.4375 0.300781 14.9531 0.300781C17.3021 0.300781 18.7057 1.66146 19.1641 4.38281C19.25 4.95573 19.293 5.57161 19.293 6.23047C19.2643 10.7279 17.0443 14.1367 12.6328 16.457ZM1.58984 16.457L0.0859378 13.5781C2.52083 12.2891 3.92448 10.6419 4.29688 8.63672C4.35417 8.20703 4.38281 7.76302 4.38281 7.30469C4.26823 7.33333 4.125 7.34765 3.95313 7.34765C2.52083 7.34765 1.48958 6.78906 0.859376 5.67187C0.572918 5.15625 0.429689 4.61198 0.429689 4.03906C0.429689 2.29166 1.13151 1.13151 2.53516 0.558592C2.96485 0.386717 3.4375 0.30078 3.95313 0.30078C6.47396 0.30078 7.87761 1.90495 8.16406 5.11328C8.19271 5.48568 8.20703 5.85807 8.20703 6.23047C8.17839 10.7852 5.97266 14.194 1.58984 16.457Z" fill="#8FC719"/>
</svg>
